/* XPM */
static char * Ent_Walk_2_xpm[] = {
"32 32 9 1",
" 	c None",
".	c #1C1117",
"+	c #3D734F",
"@	c #4BA747",
"#	c #97DA3F",
"$	c #483B3A",
"%	c #775C55",
"&	c #AA8D7A",
"*	c #241729",
"                                ",
"              ...               ",
"            ..+++.. ...         ",
"           .+++@+++.+++..       ",
"          ..+@@@@@+++@+++.      ",
"         .++@@@@@@+@@@#@+.      ",
"        .++@#@+@@+@#++@@++.     ",
"       .++@@@@#@@@#@@@@@@+.     ",
"      .++@#+@@@..@@@@#@#++.     ",
"     .++@@@@@++..#@+@@@@+.      ",
"     .+@@.@@@#@@@@@@#.$@+.      ",
"    .++@@@$#@@+..+@+@.@#++.     ",
"    .+@#@..@@.+..+.@@$@@@+.     ",
"    .++@@+@@$...%..#@@#@++.     ",
"     .+@@@+.$$.%%.%%.+@@+.      ",
"     .+++@+..$%%%%%&.@+++.      ",
"      ..++. .$%%%%%..++..       ",
"        ..  .$&&%%&. ..         ",
"            .$**%%*.            ",
"            .$**%%*.            ",
"            .$$$%%$.            ",
"            .$%%%%%.            ",
"             .$%%&.             ",
"             .$%%%.             ",
"            ..$%%&..            ",
"           ..$%%%%%..           ",
"           .$%%%%%%%%.          ",
"           .$%........          ",
"           .&.                  ",
"            ..                  ",
"                                ",
"                                "};
