/* XPM */
static char * Centaur_M_Idle_2_xpm[] = {
"32 32 9 1",
" 	c None",
".	c #1C1117",
"+	c #62232F",
"@	c #8F4029",
"#	c #FCCBA3",
"$	c #5956BD",
"%	c #E2B694",
"&	c #314152",
"*	c #3D734F",
"                                ",
"                                ",
"                                ",
"                                ",
"                                ",
"                                ",
"                                ",
"                                ",
"                                ",
"                                ",
"                                ",
"                                ",
"              ..........        ",
"              ..+.++.+..        ",
"              .+@@@@@@@.        ",
"              .+@@@@@@@.        ",
"              .+#######.        ",
"              .+#$$###$.        ",
"              .+#$$###$.        ",
"              .+#%%###%@.       ",
"              .+@@@@@@@@.       ",
"              .+++@@@@++.       ",
"              .%##@@@@@.        ",
"              .%####@@#.        ",
"              .%#######.        ",
"        .......#####%##.        ",
"      ..&***&&****&#%#&.        ",
"     .@.&*&****&&**&#&*.        ",
"    .+@.&*&&***&****&**.        ",
"    .+@.&**************.        ",
"     ...&&.......&&..&&.        ",
"       ... ... .... ...         "};
