/* XPM */
static char * GnollBrute_Idle_3_xpm[] = {
"32 32 12 1",
" 	c None",
".	c #1C1117",
"+	c #483B3A",
"@	c #DA4E38",
"#	c #775C55",
"$	c #4BA747",
"%	c #72D6CE",
"&	c #5698CC",
"*	c #62232F",
"=	c #8F4029",
"-	c #212121",
";	c #314152",
"                                ",
"                                ",
"                                ",
"                                ",
"                                ",
"                                ",
"                                ",
"                                ",
"                                ",
"                                ",
"                                ",
"                                ",
"                                ",
"                                ",
"                                ",
"                                ",
"           ..      ..           ",
"           .+.    .+.           ",
"           .++....@+.           ",
"           .+###@@@#.           ",
"           .+#$$#@#$.           ",
"           .+#$$###$.           ",
"           .+#++#@#+.           ",
"        ......#######...        ",
"        .%%&&.####**#.&.        ",
"        .%%%&.#######.&.        ",
"        ..%%&.#.+++++...        ",
"        .....==#.----.          ",
"        .+..+##==##+.           ",
"        .#..+####==+.           ",
"         ..;;;;;;;;;;.          ",
"           ...........          "};
