/* XPM */
static char * LargeMushroom_Idle_1_xpm[] = {
"32 32 7 1",
" 	c None",
".	c #1C1117",
"+	c #9F294E",
"@	c #DA4E38",
"#	c #FDF7ED",
"$	c #D3BFA9",
"%	c #AA8D7A",
"                                ",
"                                ",
"                                ",
"                                ",
"                                ",
"             ........           ",
"           ..++@@@@@@..         ",
"         ..+++@@#@@@@@@..       ",
"        .+++@@@@@@@@@#@@@.      ",
"        .++#@@@@@@@@@@@#@.      ",
"       .++@@@@@@@#@@@@@@@@.     ",
"       .+$@@@#@@@@@@#@@@@@.     ",
"       .+++@@@@@@@@@@@#@@@.     ",
"        ..+++@@@@@#@@@@@..      ",
"          ..............        ",
"            .%%#####.           ",
"           .%%#..##..           ",
"           .%##..##..           ",
"          .%###$$##$$.          ",
"         .%%##########.         ",
"         .%###########.         ",
"        .%%############.        ",
"        .%%############.        ",
"        .%%############.        ",
"       .%%%#############.       ",
"       .%%%#############.       ",
"       .%%%#############.       ",
"       .%%##############.       ",
"       .%%%#############.       ",
"        .%%$###########.        ",
"         .%%$$....$$$$.         ",
"          ....    ....          "};
