/* XPM */
static char * Ranger_Idle_1_xpm[] = {
"32 32 12 1",
" 	c None",
".	c #1C1117",
"+	c #D3BFA9",
"@	c #FDF7ED",
"#	c #3D734F",
"$	c #4BA747",
"%	c #EE8E2E",
"&	c #E2B694",
"*	c #FCCBA3",
"=	c #FACB3E",
"-	c #5698CC",
";	c #8F4029",
"                                ",
"                                ",
"                                ",
"                                ",
"                                ",
"                                ",
"                                ",
"                                ",
"                                ",
"       ...                      ",
"     ..+++.                     ",
"    ..@@@@+.                    ",
"      .....+......              ",
"           .##$$$$...           ",
"          .##$$$$$$$$...        ",
"          .######$$$$$$$.       ",
"          ...............       ",
"          .%%&&***&&==.         ",
"          .%&*******..          ",
"          .%&*--***-.           ",
"          .%**--***-.           ",
"          .%**&&***&.           ",
"         .%%&*%%%*%%.           ",
"         ...##******..          ",
"          .$$$#**%%*$.          ",
"           .$$$#**%#.           ",
"           .$$$$###$.           ",
"           .$$$$$$#$.           ",
"           .########.           ",
"           .;;....;;.           ",
"           .;.   .;.            ",
"           ..    ..             "};
