/* XPM */
static char * Troll_Idle_1_xpm[] = {
"32 32 12 1",
" 	c None",
".	c #1C1117",
"+	c #C56025",
"@	c #8F4029",
"#	c #55A894",
"$	c #72D6CE",
"%	c #314152",
"&	c #3D734F",
"*	c #F0F0DD",
"=	c #62232F",
"-	c #483B3A",
";	c #775C55",
"                                ",
"                         ....   ",
"                        .++@@.  ",
"                        .++@@...",
"                        .++@##$.",
"                      ...++@@.. ",
"          ..........  .$##+@@.  ",
"         .%&.&&&&&&&.  ..++@@...",
"         .%&.&&&&&&&.   .++@##$.",
"      .  .%&&.&&&&&&. ...++@@.  ",
"       ...%&%...%%%%. .$##+@@.  ",
"    . .%%.%&&...&&&..  ..++@@...",
"     .%%&.%&&.....&...  .++@##$.",
"   ..%%&&.%&&%%&&&..*.  .++@@.. ",
"    .%&&&.%&&&*&&&&&*.  .++@@.  ",
"   ..%%&&.%%*.*..*.**.  .++@@.  ",
"    .%&&&..%&&&&&&&&&.   .+@.   ",
"    .%&&&&.%%%%%%%%%..  .....   ",
"    .%%&&&............  .%&&.   ",
"    .%%&&&&&&&&&&&&&&.  .%&&.   ",
"    .%&&&&%%&&&&&&%%&.  .%&&.   ",
"    .%%&&&&&&&&&&&&&&.  .....   ",
"    .%%%&&&&&&&&&&&&&.   .+@.   ",
"   ..%%%%%%%%%%%%%%%%..  .+@.   ",
"   .=@@@@@@@@@@@@@@@@@.   ..    ",
"   ..----------------..         ",
"    .---;;;;;;;-;;;;;.          ",
"    .--;;;;;;;---;;;;.          ",
"    .--;;;;;;;;-;;;;;.          ",
"    .@@@@@..;;;-;;;;;.          ",
"     .===.  .....%%%..          ",
"      ...       .....           "};
