/* XPM */
static char * Wolf_Idle_1_xpm[] = {
"32 32 7 1",
" 	c None",
".	c #1C1117",
"+	c #483B3A",
"@	c #775C55",
"#	c #9F294E",
"$	c #62232F",
"%	c #212121",
"                                ",
"                                ",
"                                ",
"                                ",
"                                ",
"                                ",
"                                ",
"                                ",
"                                ",
"                                ",
"                                ",
"                                ",
"                                ",
"                                ",
"                                ",
"       ..         ..      ..    ",
"     ..+.         .+.    .+.    ",
"    .@+.          .++....++.    ",
"    .@+.          .+@@@@@@@.    ",
"   .@@+.          .+@##@@@#.    ",
"   .@@+.          .+@##@@@#.    ",
"    .@+.          .+@++@@@+.    ",
"    .@+.         ..++@@@@@@@.   ",
"     .@+.........+.+++@@@$$@.   ",
"      .@+++++++++@@.+++@@@@@.   ",
"       ..+++++@@++@@...+++++.   ",
"        .++@+++@@+@@@++.%%%%    ",
"        .+@@@++@@@@@@++.        ",
"        .+@@@@@..@@@@@@.        ",
"        .+@.... .++..+@.        ",
"        .+. ... .+. .+.         ",
"        ..  ..  ..  ..          "};
