/* XPM */
static char * sprite_exit_xpm[] = {
"32 32 13 1",
" 	c #00C0C0",
".	c #014949",
"+	c #010101",
"@	c #DBF5F5",
"#	c #FDFDFD",
"$	c #E8D168",
"%	c #FF9F08",
"&	c #92561D",
"*	c #256E6E",
"=	c #E52020",
"-	c #F36C6C",
";	c #951919",
">	c #3C3C3C",
"                                ",
"                                ",
"                                ",
"                                ",
"     .++.              .++.     ",
"    .@#$%.            .@#$%.    ",
"    +&$%&.************.&$%&+    ",
"    .&&&&+=----------=+&&&&.    ",
"     .&&+;;==------==;;+&&.     ",
"     ..++..............++..     ",
"      .;;.            .;;.      ",
"      .=;.************.=;.      ",
"      .=;+;==------==;+=;.      ",
"      .=;+;;;======;;;+=;.      ",
"      .=;+............+=;.      ",
"      .=;+.          .+=;.      ",
"      .;;+.**********.+;;.      ",
"       .;;+;=------=;+;;.       ",
"       .=;+..........+=;.       ",
"       .=;+*        *+=;.       ",
"       .=;+**********+=;.       ",
"       .=;++;======;++=;.       ",
"        .;++++++++++++;.        ",
"        .;+>>>>>>>>>>+;.        ",
"        .;+>>;;;;;;>>+;.        ",
"        .;............;.        ",
"        .;.          .;.        ",
"         ..          ..         ",
"                                ",
"                                ",
"                                ",
"                                "};
