/* XPM */
static char * sprite_collectible_xpm[] = {
"32 32 10 1",
" 	c #00C0C0",
".	c #004747",
"+	c #256E6E",
"@	c #3C3C3C",
"#	c #000000",
"$	c #FF6600",
"%	c #6D6D6D",
"&	c #D2D2D2",
"*	c #FF9F08",
"=	c #FDFDFD",
"                                ",
"                                ",
"                                ",
"                                ",
"                                ",
"             ......   ....      ",
"          ...+@###+...$$$.      ",
"        ..+%%%%##&&@&**$#.      ",
"       .+%&&&%%#&&@&***#..      ",
"      .+%&==&&%@&=@%&*&#.       ",
"     .+%&====&%@==%@%%%#..      ",
"     .%&&====&&%@===@@@##.      ",
"    .+%&&====&&%%@=&%%###.      ",
"    .@%&&&==&&&%%@@####@#..     ",
"    .%%&&&&&&&&%%%@@@@@@##.     ",
"    .%%%&&&&&&%%%%%@@@@@##.     ",
"    .%%%%&&&&%%%%%%@@@@@##.     ",
"    .%%%%%%%%%%%%%%@@@@@##.     ",
"    .@%%%%%%%%%%%%%@@@@@##.     ",
"    .@&%%%%%%%%%%%@@@@@##..     ",
"    .+%&%%%%%%%%%%@@@@@##.      ",
"     .@%&=%%%%%%%@@@@@@##.      ",
"     .+@%&==&%%%%@@@@@##..      ",
"      .+@@@%%%%@@@@@@##..       ",
"       ..@@@@@@@@@@###..        ",
"        ...##@@@@###...         ",
"          ....###....           ",
"             .###.              ",
"                                ",
"                                ",
"                                ",
"                                "};
