/* XPM */
static char * sprite_collectible_xpm[] = {
"20 27 9 1",
" 	c #00C0C0",
".	c #000000",
"+	c #FF9F08",
"@	c #FF6600",
"#	c #3C3C3C",
"$	c #6D6D6D",
"%	c #A6A6A6",
"&	c #FDFDFD",
"*	c #D2D2D2",
"                    ",
"                    ",
"                    ",
"                    ",
"                    ",
"                    ",
"                    ",
"             .....  ",
"       .......+@@.  ",
"     ..##.#.$++@..  ",
"    .#%&%.#$**#..   ",
"   .#$&&&$#**$$..   ",
"   .$%&&&%$$#....   ",
"  .#%%%&%%%$$##...  ",
"  .$%%%%%%%$$##...  ",
"  .$%%%%%%%$$##...  ",
"  .$$%%%%%$$###...  ",
"  .%$$%%%$$$###...  ",
"  .%&$$$$$$####...  ",
"   .%&%$$$####...   ",
"   .$%&%#####....   ",
"    .#####......    ",
"     ..........     ",
"       ......       ",
"                    ",
"                    ",
"                    "};
