/* XPM */
static char * sprite_player_xpm[] = {
"20 32 16 1",
" 	c #00C0C0",
".	c #080808",
"+	c #F8F8F8",
"@	c #C00850",
"#	c #687090",
"$	c #B0B8D0",
"%	c #E0E8F8",
"&	c #F0A870",
"*	c #F8C8A0",
"=	c #C0C8D8",
"-	c #2840F8",
";	c #102070",
">	c #8088A0",
",	c #C07020",
"'	c #780028",
")	c #F820A8",
"                    ",
"        ....        ",
"       .+@@@.       ",
"       ......       ",
"     ..######..     ",
"    .#$$$$$$$$#.    ",
"    .$%%%%%%%$$.    ",
"   .$%%%%%%%%%$#.   ",
"   .$%%%%%%%%%$#.   ",
"   .$$$&&&&&&$$#.   ",
"   .$&&.****.&&#.   ",
"   .$&*.****.&&#.   ",
"   .$&*.****.&&#.   ",
"   .$&*.****.&&#.   ",
"    .#&.****.&#.    ",
"    .##&&&&&&##.    ",
"     ..######..     ",
"      ........      ",
"     .=.----.=.     ",
"    .=.;;--;;.=.    ",
"   ..>..;;;;..>..   ",
"  .+@@..,;;,..@@+.  ",
"  .@''..;..;..''@.  ",
"  .@''...;;...''@.  ",
"   ... .#..#. ...   ",
"      ..$..$..      ",
"     .''.''.''.     ",
"    .@@''..''@@.    ",
"   .)))@'..'@))@.   ",
"   .++@'.  .'++@.   ",
"   .'''.    .'''.   ",
"    ...      ...    "};
