/* XPM */
static char * sprite_wall_xpm[] = {
"32 32 8 1",
" 	c #00C0C0",
".	c #3A2410",
"+	c #71471F",
"@	c #9C661D",
"#	c #92561D",
"$	c #AC8530",
"%	c #613C1A",
"&	c #010101",
"                                ",
"                                ",
"                                ",
"                                ",
"   .++@+#$##@+#%%%%%%%.....&    ",
"   .++@+#$##@+#%@+@@@###$##&    ",
"   .++@+#$#+@+#%@+@@@@##$+#&    ",
"   .++@+#$#+@+#%@#$++$++$+#&    ",
"   .++$+#$#+@+#%#+$++$@+$+#&    ",
"   %++$+#$+#@+#.#+$++$@+$#+&    ",
"   %++$+#$+#@+#.@+$++@#+$#+&    ",
"   %++$#+$+#@+#.@+$++@#+$#+&    ",
"   %++$#+$+#@+#.@+$++@#+$#+&    ",
"   %++$#+$+#@+#.#@$++@+@$#+&    ",
"   %++@#+$+#$##.#@$++@+@##+&    ",
"   %++@##$+#$##.#@$++@#@###&    ",
"   %%%%%%%......#@$++@#@#++&    ",
"   %++@+#+##$+#.#@$+#$+#@++&    ",
"   %++@+#+##$+#.#@$+#$+#@++&    ",
"   %++$+#+##$+#.##$+#$+#@++&    ",
"   %++$+#+#+$+#.##$+#$+#@++&    ",
"   %++$+#+#+$+#.##$+#$+#@++&    ",
"   %#+$+#@+#@+#.@@$+#$+#$++&    ",
"   .#+$+#@+##+#.@@$##$+#$++&    ",
"   .#+$+#@+#@##%@@$##$+#$++&    ",
"   .#+$+#@+#@##%@+@##$+#$++&    ",
"   .#++++++#+##%@+@##$+#$++&    ",
"   .#+++++##+##%@+@##$##$++&    ",
"                                ",
"                                ",
"                                ",
"                                "};
