/* XPM */
static char * sprite_exit_xpm[] = {
"24 24 10 1",
" 	c #00C0C0",
".	c #010101",
"+	c #FDFDFD",
"@	c #E8D168",
"#	c #FF9F08",
"$	c #92561D",
"%	c #3C3C3C",
"&	c #E52020",
"*	c #F36C6C",
"=	c #951919",
" ....              .... ",
".++@#.            .++@#.",
".$@#$.%%%%%%%%%%%%.$@#$.",
".$$$$.&**********&.$$$$.",
" .$$.==&&******&&==.$$. ",
" ...................... ",
"  .==.            .==.  ",
"  .&=.%%%%%%%%%%%%.&=.  ",
"  .&=.=&&******&&=.&=.  ",
"  .&=.===&&&&&&===.&=.  ",
"  .&=..............&=.  ",
"  .&=..          ..&=.  ",
"  .==..%%%%%%%%%%..==.  ",
"   .==.=&******&=.==.   ",
"   .&=............&=.   ",
"   .&=.%        %.&=.   ",
"   .&=.%%%%%%%%%%.&=.   ",
"   .&=..=&&&&&&=..&=.   ",
"    .=............=.    ",
"    .=.%%%%%%%%%%.=.    ",
"    .=.%%======%%.=.    ",
"    .=............=.    ",
"    .=.          .=.    ",
"     ..          ..     "};
