/* XPM */
static char * sprite_player_xpm[] = {
"32 32 21 1",
" 	c #00C0C0",
".	c #037979",
"+	c #054D4D",
"@	c #B4E9E9",
"#	c #C00850",
"$	c #080808",
"%	c #24A4AF",
"&	c #687090",
"*	c #B0B8D0",
"=	c #E0E8F8",
"-	c #3DBDC6",
";	c #F0A870",
">	c #F8C8A0",
",	c #4DC3CA",
"'	c #2840F8",
")	c #102070",
"!	c #8088A0",
"~	c #C07020",
"{	c #780028",
"]	c #F820A8",
"^	c #F8F8F8",
"              .++.              ",
"             .@###.             ",
"             .$$$$.             ",
"           ..%&&&&%..           ",
"          .%********%.          ",
"          .*=======**.          ",
"         .-=========*%.         ",
"         .*=========*&.         ",
"         .***;;;;;;**&.         ",
"         .*;;$>>>>$;;&.         ",
"         .*;>$>>>>$;;&.         ",
"         .*;>$>>>>$;;&.         ",
"         .-;>$>>>>$;;%.         ",
"          .&;$>>>>$;&.          ",
"          .%&;;;;;;&%.          ",
"           ..&&&&&&..           ",
"            .$$$$$$.            ",
"           .,$''''$,.           ",
"          .,$))''))$,.          ",
"         ..!$$))))$$!..         ",
"        .@##$$~))~$$##@.        ",
"        .#{{$$)$$)$${{#.        ",
"        .#{{$$$))$$${{#.        ",
"         ... $&$$&$ ...         ",
"            .$*$$*$.            ",
"           .{{${{${{.           ",
"          .##{{$${{##.          ",
"         .]]]#{..{#]]#.         ",
"         .^^#{.  .{^^#.         ",
"         .{{{.    .{{{.         ",
"          ...      ...          ",
"                                "};
